<?xml version="1.0" standalone="no"?>
<!DOCTYPE svg PUBLIC "-//W3C//DTD SVG 20010904//EN"
 "http://www.w3.org/TR/2001/REC-SVG-20010904/DTD/svg10.dtd">
<svg version="1.0" xmlns="http://www.w3.org/2000/svg"
 width="1024.000000pt" height="1024.000000pt" viewBox="0 0 1024.000000 1024.000000"
 preserveAspectRatio="xMidYMid meet">

<g transform="translate(0.000000,1024.000000) scale(0.100000,-0.100000)"
fill="#000000" stroke="none">
<path d="M5102 8769 c-41 -8 -88 -52 -101 -93 -6 -17 -40 -159 -76 -316 -91
-397 -76 -357 -138 -368 -399 -74 -596 -136 -882 -277 -262 -129 -433 -243
-614 -408 l-85 -78 -64 64 -65 65 18 46 c24 62 16 139 -21 207 -44 80 -119
128 -214 136 -111 10 -208 -44 -265 -148 -26 -47 -29 -65 -30 -134 0 -63 5
-89 22 -121 69 -129 221 -188 342 -134 l43 20 59 -58 59 -57 -81 -90 c-175
-195 -356 -481 -453 -716 -84 -205 -170 -527 -196 -734 -20 -162 -16 -152 -58
-160 -93 -17 -691 -169 -729 -185 -99 -43 -97 -174 3 -216 18 -8 93 -27 166
-43 114 -26 335 -75 538 -122 30 -7 56 -14 58 -15 2 -1 11 -62 22 -135 55
-393 171 -734 353 -1039 94 -158 234 -347 335 -452 l45 -47 -31 -38 c-16 -21
-44 -51 -60 -67 l-31 -29 -65 18 c-78 21 -129 15 -199 -23 -173 -94 -193 -317
-40 -451 105 -93 283 -80 376 29 64 75 81 160 51 260 l-16 53 64 63 63 63 75
-65 c306 -264 712 -485 1095 -593 110 -31 333 -83 412 -96 41 -6 42 -7 62 -75
19 -62 68 -259 132 -534 17 -74 30 -108 51 -132 57 -65 130 -69 187 -10 28 29
38 55 80 222 27 104 65 261 86 349 20 88 40 163 44 167 3 4 65 18 136 33 172
34 268 59 396 100 372 118 739 322 991 550 51 47 95 84 98 83 3 0 33 -31 68
-68 l62 -67 -15 -36 c-50 -120 21 -283 147 -337 72 -31 175 -25 241 13 89 53
137 134 137 237 0 78 -24 138 -78 193 -70 73 -153 95 -255 70 l-59 -15 -66 65
-65 65 66 72 c243 263 454 632 561 981 61 203 116 471 116 572 0 53 -52 36
500 163 267 62 278 65 314 103 51 53 38 133 -28 176 -13 9 -161 50 -328 91
-167 41 -334 82 -373 92 l-70 17 -8 50 c-69 455 -131 670 -282 980 -109 225
-237 411 -402 588 -35 37 -62 71 -62 75 1 4 27 31 58 59 l57 53 39 -20 c73
-37 178 -24 262 34 163 112 135 383 -50 476 -134 67 -295 14 -362 -120 -25
-48 -31 -145 -12 -198 l15 -44 -60 -64 -60 -64 -47 41 c-266 234 -507 391
-771 504 -214 92 -533 184 -719 207 -78 10 -95 16 -102 33 -5 11 -40 159 -79
329 -38 170 -79 329 -91 353 -29 60 -83 86 -147 72z m60 -452 c55 -222 161
-708 224 -1032 36 -181 92 -457 125 -612 32 -155 62 -301 65 -326 l6 -43 -42
-13 c-119 -35 -261 -117 -356 -204 l-54 -49 -49 47 c-84 80 -183 135 -333 185
-38 12 -68 27 -68 34 0 26 60 345 115 611 31 149 81 394 111 545 30 151 67
322 80 380 14 58 34 148 44 200 30 147 94 400 99 394 3 -2 17 -55 33 -117z
m-362 -506 c0 -12 -29 -150 -36 -173 -3 -10 -14 -18 -26 -18 -44 0 -230 -44
-348 -82 -339 -110 -610 -265 -895 -510 -386 -334 -682 -852 -769 -1348 -10
-52 -20 -113 -24 -134 l-7 -39 -75 -18 c-109 -26 -104 -29 -96 44 11 98 52
292 91 427 144 504 411 906 839 1267 334 281 777 488 1226 573 116 22 120 22
120 11z m847 -27 c225 -46 453 -124 648 -222 124 -62 378 -231 510 -340 416
-342 717 -800 850 -1291 36 -134 69 -296 80 -400 6 -55 5 -63 -8 -58 -8 3 -43
11 -77 18 -34 6 -67 18 -74 25 -7 7 -16 43 -20 81 -28 274 -175 670 -346 933
-268 410 -718 777 -1172 954 -137 54 -329 111 -425 126 -37 6 -77 13 -89 15
-16 4 -24 19 -37 77 -23 99 -23 108 9 108 15 0 83 -12 151 -26z m-2747 -219
c36 -19 50 -43 50 -90 l0 -36 -30 34 c-16 19 -47 46 -70 62 l-40 28 -26 -24
c-14 -13 -34 -40 -45 -59 -16 -30 -18 -32 -19 -12 -1 84 100 138 180 97z
m4560 6 c0 -5 -30 -35 -67 -66 -39 -33 -67 -65 -66 -74 1 -9 -4 -1 -13 17 -13
31 -13 37 3 70 10 20 29 42 43 49 29 15 100 17 100 4z m-2780 -357 c-73 -332
-74 -336 -90 -345 -8 -4 -51 -18 -95 -32 -44 -14 -87 -28 -95 -31 -11 -4 -21
9 -38 47 -58 134 -129 209 -182 192 -53 -17 -46 -86 24 -240 l34 -74 -68 -40
c-37 -22 -104 -67 -149 -101 l-81 -60 -82 75 c-112 101 -166 126 -202 89 -38
-38 -18 -84 91 -209 l70 -80 -62 -67 c-34 -36 -85 -102 -115 -145 -29 -43 -56
-82 -61 -87 -4 -4 -53 15 -109 43 -56 28 -115 51 -131 51 -56 0 -87 -60 -55
-106 17 -24 137 -105 184 -124 17 -7 32 -14 32 -17 0 -2 -9 -22 -20 -44 -12
-22 -36 -85 -54 -140 -19 -55 -36 -103 -39 -105 -3 -3 -85 -23 -183 -44 -99
-21 -214 -47 -256 -57 -91 -23 -87 -31 -59 102 121 584 426 1046 930 1409 170
123 341 212 547 286 114 41 347 100 357 91 4 -4 -15 -111 -43 -237z m1004 207
c550 -132 1060 -493 1379 -976 84 -128 191 -353 243 -513 45 -137 94 -365 81
-378 -3 -4 -121 20 -262 52 l-255 59 -15 55 c-8 30 -28 89 -45 130 -16 41 -32
82 -35 92 -5 13 12 26 75 59 104 54 150 96 150 137 0 77 -62 81 -200 12 -55
-27 -103 -50 -107 -50 -5 0 -23 25 -42 56 -18 31 -68 97 -110 146 -42 49 -80
95 -84 101 -5 8 13 34 48 72 108 115 139 179 105 219 -32 39 -110 2 -227 -108
l-63 -58 -38 34 c-42 38 -129 98 -203 141 l-46 26 43 108 c47 116 54 166 27
195 -44 49 -105 1 -174 -139 -24 -48 -44 -89 -44 -89 0 -1 -52 15 -115 36
-112 36 -115 38 -122 71 -30 134 -102 480 -106 507 -3 20 0 32 7 32 7 0 67
-13 135 -29z m-2923 -28 c13 -16 12 -17 -3 -4 -10 7 -18 15 -18 17 0 8 8 3 21
-13z m4624 -21 c11 -6 15 -12 8 -12 -7 0 -22 10 -35 23 -13 12 -17 17 -8 11 8
-6 24 -16 35 -22z m-2822 -714 c-3 -18 -18 -85 -33 -148 l-27 -115 -99 -6
c-129 -9 -178 -22 -299 -78 -224 -106 -368 -272 -501 -576 -29 -68 -28 -14 2
62 92 235 235 431 443 607 135 114 235 176 406 247 113 47 116 47 108 7z
m1205 8 c105 -36 277 -128 374 -201 208 -156 426 -431 507 -640 43 -107 47
-125 32 -125 -5 0 -27 43 -50 96 -53 122 -111 213 -197 304 -173 183 -356 275
-572 287 -93 6 -103 8 -107 27 -24 108 -57 244 -61 259 -7 21 -11 22 74 -7z
m-1215 -468 c32 -6 56 -13 53 -15 -2 -3 -44 -13 -93 -24 -173 -37 -303 -106
-418 -223 -158 -160 -247 -400 -232 -625 10 -151 68 -295 189 -468 101 -145
381 -429 664 -674 81 -71 370 -297 413 -323 11 -7 145 95 377 288 167 140 203
174 429 400 221 222 308 330 377 468 71 142 92 229 92 373 -1 148 -19 229 -79
350 -74 149 -172 253 -327 348 -70 42 -230 97 -283 97 -19 0 -35 4 -35 9 0 15
86 31 168 31 148 0 279 -59 410 -185 190 -181 279 -384 289 -655 4 -126 3
-143 -25 -252 -51 -197 -139 -358 -323 -589 -246 -308 -538 -569 -1001 -893
l-68 -47 0 -120 0 -119 28 6 c40 10 207 72 280 105 34 15 62 23 62 18 0 -5
-13 -67 -30 -137 -40 -172 -111 -494 -150 -677 -42 -200 -146 -656 -165 -725
-8 -30 -15 -68 -15 -85 0 -17 -4 -25 -9 -20 -18 20 -147 584 -271 1185 -34
162 -68 320 -76 351 -7 31 -29 134 -48 228 -19 95 -44 204 -56 244 -19 64 -27
76 -71 110 -53 42 -54 42 -113 -11 -33 -29 -37 -36 -31 -65 4 -18 16 -47 26
-66 11 -18 28 -70 39 -115 10 -44 22 -89 26 -100 6 -16 4 -17 -17 -11 -54 16
-251 116 -321 163 -176 119 -331 272 -448 443 -60 87 -161 285 -174 341 l-6
26 58 -13 c112 -27 176 -45 182 -52 3 -5 37 -50 75 -101 38 -50 72 -89 75 -85
3 5 26 34 50 67 24 32 54 65 67 73 22 15 22 15 -48 101 -258 320 -352 555
-336 841 9 149 37 255 106 396 65 131 131 215 236 300 71 57 184 113 252 125
55 10 161 5 246 -12z m261 -203 c96 -25 166 -66 245 -141 l74 -72 31 36 c121
139 258 198 444 190 130 -5 171 -25 239 -116 64 -86 108 -163 133 -237 27 -79
24 -93 -5 -22 -46 110 -124 177 -249 213 -92 26 -225 16 -307 -23 -118 -56
-212 -164 -245 -283 -9 -30 -19 -59 -23 -63 -12 -12 -41 3 -41 22 0 26 -69
163 -79 157 -5 -3 -8 1 -7 8 2 27 -104 125 -170 157 -52 26 -79 32 -152 37
-95 5 -197 -12 -185 -31 3 -6 1 -7 -5 -3 -19 11 -111 -55 -143 -103 -16 -25
-34 -63 -40 -85 -15 -56 -6 -153 20 -203 39 -77 19 -143 -43 -143 -46 0 -79
29 -115 100 -77 155 -61 307 44 436 61 74 190 148 310 177 47 11 214 6 269 -8z
m-1269 -532 c-3 -32 -8 -74 -10 -95 -9 -68 14 -271 40 -358 27 -91 81 -212
116 -261 12 -17 20 -32 18 -33 -8 -7 -1030 216 -1389 302 -113 28 -260 63
-327 78 -69 16 -117 32 -110 36 20 11 433 113 701 173 133 30 282 63 331 75
148 35 606 136 628 139 4 1 5 -25 2 -56z m3770 -78 c425 -95 856 -197 1040
-246 40 -11 40 -11 -95 -44 -414 -99 -590 -140 -820 -190 -708 -155 -808 -177
-846 -184 l-41 -8 38 66 c46 82 104 251 120 351 6 43 10 141 7 231 l-4 156 46
-10 c25 -5 275 -60 555 -122z m-3258 -22 c-2 -16 -4 -5 -4 22 0 28 2 40 4 28
2 -13 2 -35 0 -50z m0 -70 c-3 -10 -5 -4 -5 12 0 17 2 24 5 18 2 -7 2 -21 0
-30z m10 -55 c-3 -8 -6 -5 -6 6 -1 11 2 17 5 13 3 -3 4 -12 1 -19z m-1448
-476 l75 -17 18 -110 c81 -488 293 -902 653 -1274 200 -207 494 -412 745 -522
208 -90 447 -167 602 -194 31 -5 39 -11 44 -33 3 -15 12 -50 20 -79 8 -28 14
-56 14 -62 0 -13 -24 -9 -190 30 -430 102 -779 266 -1105 520 -170 133 -354
325 -499 522 -227 308 -404 736 -461 1113 -8 54 -15 105 -15 112 0 15 9 15 99
-6z m5116 -29 c-29 -209 -109 -503 -190 -693 -302 -711 -919 -1254 -1685
-1484 -156 -47 -349 -90 -374 -84 -11 2 -10 18 6 82 10 44 20 81 22 83 2 2 48
12 102 22 288 56 611 192 888 375 380 251 717 652 890 1056 24 58 59 151 77
207 18 56 35 100 38 98 3 -2 6 9 7 23 1 24 54 323 59 329 3 4 128 31 148 32
16 1 17 -5 12 -46z m-4555 -89 c118 -24 218 -44 223 -44 4 0 7 -5 7 -10 0 -6
21 -67 46 -137 29 -80 42 -129 35 -131 -23 -8 -157 -100 -188 -129 -40 -38
-45 -84 -11 -107 36 -25 60 -20 178 40 61 31 112 55 114 53 2 -2 27 -38 55
-80 28 -42 81 -112 119 -156 l69 -79 -77 -88 c-98 -111 -118 -145 -104 -183 5
-16 21 -32 37 -37 39 -14 82 11 183 107 45 42 85 77 90 77 4 0 29 -18 55 -40
57 -48 199 -140 217 -140 16 0 17 2 -22 -87 -19 -43 -42 -106 -52 -140 -16
-58 -16 -64 0 -87 22 -34 74 -36 102 -3 28 31 67 93 103 165 30 60 32 61 59
50 15 -6 61 -21 102 -33 l75 -22 62 -279 c34 -153 62 -285 62 -291 1 -15 -26
-11 -179 29 -434 113 -881 393 -1168 733 -156 185 -293 411 -376 622 -45 114
-104 335 -112 425 l-7 66 44 -9 c24 -6 141 -30 259 -55z m4205 19 c-23 -166
-112 -446 -194 -608 -69 -135 -190 -322 -276 -425 -95 -113 -283 -291 -402
-380 -129 -95 -352 -224 -483 -278 -153 -64 -413 -142 -471 -142 -13 0 -11 22
10 114 10 44 38 167 62 272 l43 191 85 25 c47 14 93 28 101 32 12 5 23 -8 44
-51 75 -155 137 -219 186 -193 50 27 43 100 -26 250 -21 44 -35 82 -33 83 2 2
34 20 70 40 36 20 99 61 138 92 l72 56 91 -85 c105 -99 148 -124 184 -107 14
6 30 22 36 36 18 40 1 68 -146 240 l-39 45 55 58 c62 65 133 158 169 219 l25
41 79 -49 c44 -27 104 -56 133 -65 48 -14 55 -14 77 0 14 9 25 20 25 25 0 5 3
16 6 24 9 23 -52 83 -149 149 -69 47 -87 63 -81 76 3 9 25 69 47 132 22 63 41
116 42 117 1 3 496 111 513 112 10 1 12 -10 7 -46z m-730 -178 c-120 -319
-407 -634 -738 -810 -102 -55 -197 -89 -197 -72 0 7 9 51 21 99 21 86 22 89
73 125 204 146 458 405 582 595 l54 83 112 26 c62 14 114 25 116 23 1 -1 -9
-32 -23 -69z m-3791 -1605 c30 -11 66 -45 66 -62 0 -7 -7 -2 -16 10 -8 12 -28
29 -45 37 -29 16 -29 15 -79 -35 -28 -28 -50 -58 -51 -68 0 -13 -3 -12 -11 5
-14 30 -3 70 29 99 27 25 65 30 107 14z m4496 -14 c0 -2 -8 -10 -17 -17 -16
-13 -17 -12 -4 4 13 16 21 21 21 13z m-43 -88 c-3 -7 -5 -2 -5 12 0 14 2 19 5
13 2 -7 2 -19 0 -25z"/>
</g>
</svg>
